<svg xmlns="http://www.w3.org/2000/svg" xmlns:xlink="http://www.w3.org/1999/xlink" width="500" zoomAndPan="magnify" viewBox="0 0 375 95.249998" height="127" preserveAspectRatio="xMidYMid meet" version="1.0"><defs><g/><clipPath id="f2a56bd18a"><path d="M 90.078125 47.253906 L 285.789062 47.253906 L 285.789062 84 L 90.078125 84 Z M 90.078125 47.253906 " clip-rule="nonzero"/></clipPath></defs><g clip-path="url(#f2a56bd18a)"><path fill="#000000" d="M 187.773438 73.917969 C 189.1875 72.988281 190.476562 71.984375 191.648438 70.9375 C 196.773438 66.347656 199.601562 60.882812 200.386719 56.644531 L 200.394531 56.597656 C 201.003906 53.28125 200.34375 50.875 198.5 51.042969 C 196.441406 51.230469 193.265625 53.40625 189.015625 58.574219 L 189.007812 58.585938 L 188.980469 58.621094 L 188.953125 58.648438 L 188.929688 58.675781 L 188.910156 58.691406 L 188.828125 58.773438 L 188.792969 58.800781 L 188.765625 58.828125 L 188.703125 58.878906 L 188.695312 58.890625 L 188.667969 58.90625 L 188.660156 58.914062 L 188.632812 58.933594 L 188.625 58.933594 L 188.597656 58.953125 L 188.589844 58.953125 L 188.5625 58.96875 L 188.535156 58.988281 L 188.5 59.003906 L 188.460938 59.023438 L 188.425781 59.042969 L 188.320312 59.078125 L 188.285156 59.085938 L 188.210938 59.105469 C 188.175781 59.113281 188.140625 59.121094 188.105469 59.128906 L 188.070312 59.140625 L 187.996094 59.148438 L 187.640625 59.148438 L 187.566406 59.140625 L 187.53125 59.128906 C 187.496094 59.121094 187.460938 59.113281 187.425781 59.105469 L 187.355469 59.085938 L 187.316406 59.078125 L 187.210938 59.042969 L 187.140625 59.003906 L 187.101562 58.988281 L 187.078125 58.96875 L 187.050781 58.953125 L 187.039062 58.953125 L 187.011719 58.933594 L 187.003906 58.933594 L 186.976562 58.914062 L 186.96875 58.90625 L 186.941406 58.890625 L 186.933594 58.878906 C 186.90625 58.863281 186.886719 58.84375 186.871094 58.828125 L 186.84375 58.800781 L 186.808594 58.773438 L 186.65625 58.621094 L 186.628906 58.585938 L 186.621094 58.574219 C 182.363281 53.40625 179.195312 51.230469 177.136719 51.042969 C 175.292969 50.882812 174.632812 53.28125 175.242188 56.597656 L 175.25 56.644531 C 176.046875 60.882812 178.863281 66.347656 183.988281 70.9375 C 185.074219 71.984375 186.359375 72.988281 187.773438 73.917969 M 92.054688 74.035156 C 91.179688 74.175781 90.355469 73.585938 90.214844 72.710938 C 90.070312 71.832031 90.660156 71.011719 91.539062 70.867188 C 91.617188 70.859375 118.902344 66.234375 136.953125 73.65625 C 158.800781 82.640625 174.410156 81.054688 184.714844 75.707031 C 183.660156 74.945312 182.675781 74.148438 181.753906 73.328125 C 176.046875 68.21875 172.886719 62.054688 171.992188 57.234375 L 171.984375 57.164062 C 170.945312 51.480469 172.878906 47.449219 177.316406 47.839844 C 179.910156 48.074219 183.460938 50.203125 187.773438 55.085938 C 192.085938 50.203125 195.628906 48.074219 198.230469 47.839844 C 202.667969 47.449219 204.601562 51.480469 203.5625 57.164062 L 203.554688 57.234375 C 202.648438 62.054688 199.5 68.21875 193.792969 73.328125 C 192.871094 74.148438 191.890625 74.945312 190.832031 75.707031 C 201.136719 81.046875 216.75 82.628906 238.59375 73.65625 C 256.644531 66.242188 283.929688 70.859375 284.011719 70.867188 C 284.886719 71.011719 285.476562 71.832031 285.335938 72.710938 C 285.191406 73.585938 284.367188 74.175781 283.492188 74.035156 C 283.410156 74.023438 257.003906 69.550781 239.808594 76.621094 C 215.800781 86.484375 198.785156 84.089844 187.773438 77.683594 C 176.769531 84.078125 159.746094 86.484375 135.738281 76.621094 C 118.542969 69.550781 92.136719 74.023438 92.054688 74.035156 Z M 92.054688 74.035156 " fill-opacity="1" fill-rule="nonzero"/></g><g fill="#000000" fill-opacity="1"><g transform="translate(1.464848, 35.156509)"><g><path d="M 56.296875 -29.46875 L 55.375 -28.34375 C 54.476562 -29.019531 53.601562 -29.503906 52.75 -29.796875 C 51.90625 -30.085938 51.066406 -30.234375 50.234375 -30.234375 C 48.253906 -30.234375 46.414062 -29.582031 44.71875 -28.28125 C 43.03125 -26.988281 41.546875 -25.257812 40.265625 -23.09375 C 38.984375 -20.925781 37.988281 -18.550781 37.28125 -15.96875 C 36.582031 -13.394531 36.234375 -10.832031 36.234375 -8.28125 C 36.234375 -6.257812 36.609375 -4.660156 37.359375 -3.484375 C 38.117188 -2.316406 39.113281 -1.734375 40.34375 -1.734375 C 41.3125 -1.734375 42.039062 -2.035156 42.53125 -2.640625 C 43.019531 -3.253906 43.441406 -3.796875 43.796875 -4.265625 L 45.046875 -3.5625 C 44.679688 -2.84375 44.09375 -2.066406 43.28125 -1.234375 C 42.476562 -0.410156 41.5 0 40.34375 0 C 38.832031 0 37.460938 -0.472656 36.234375 -1.421875 C 35.003906 -2.378906 33.929688 -3.613281 33.015625 -5.125 C 32.097656 -6.644531 31.304688 -8.242188 30.640625 -9.921875 C 29.972656 -11.597656 29.410156 -13.175781 28.953125 -14.65625 C 28.503906 -16.132812 28.15625 -17.285156 27.90625 -18.109375 L 27.796875 -18.109375 C 27.753906 -16.992188 27.570312 -15.671875 27.25 -14.140625 C 26.925781 -12.609375 26.457031 -11.019531 25.84375 -9.375 C 25.238281 -7.738281 24.46875 -6.207031 23.53125 -4.78125 C 22.59375 -3.363281 21.472656 -2.210938 20.171875 -1.328125 C 18.867188 -0.441406 17.375 0 15.6875 0 C 13.914062 0 12.523438 -0.332031 11.515625 -1 C 10.503906 -1.664062 9.789062 -2.519531 9.375 -3.5625 C 8.96875 -4.613281 8.765625 -5.734375 8.765625 -6.921875 L 10.390625 -6.921875 C 10.390625 -6.128906 10.539062 -5.335938 10.84375 -4.546875 C 11.144531 -3.753906 11.640625 -3.085938 12.328125 -2.546875 C 13.015625 -2.003906 13.953125 -1.734375 15.140625 -1.734375 C 16.648438 -1.734375 18.007812 -2.144531 19.21875 -2.96875 C 20.425781 -3.800781 21.472656 -4.898438 22.359375 -6.265625 C 23.242188 -7.640625 23.972656 -9.164062 24.546875 -10.84375 C 25.128906 -12.519531 25.5625 -14.234375 25.84375 -15.984375 C 26.132812 -17.734375 26.28125 -19.378906 26.28125 -20.921875 C 26.28125 -22.867188 25.953125 -24.609375 25.296875 -26.140625 C 24.648438 -27.671875 23.773438 -28.867188 22.671875 -29.734375 C 21.578125 -30.609375 20.347656 -31.046875 18.984375 -31.046875 C 17.796875 -31.046875 16.773438 -30.691406 15.921875 -29.984375 C 15.078125 -29.285156 14.425781 -28.375 13.96875 -27.25 C 13.519531 -26.132812 13.296875 -24.945312 13.296875 -23.6875 C 13.296875 -22.675781 13.492188 -21.675781 13.890625 -20.6875 C 14.296875 -19.695312 14.734375 -18.734375 15.203125 -17.796875 L 14 -16.984375 C 13.675781 -17.335938 13.304688 -17.875 12.890625 -18.59375 C 12.484375 -19.320312 12.132812 -20.144531 11.84375 -21.0625 C 11.550781 -21.976562 11.40625 -22.925781 11.40625 -23.90625 C 11.40625 -25.8125 11.800781 -27.445312 12.59375 -28.8125 C 13.394531 -30.1875 14.453125 -31.242188 15.765625 -31.984375 C 17.078125 -32.722656 18.472656 -33.09375 19.953125 -33.09375 C 21.679688 -33.09375 23.140625 -32.695312 24.328125 -31.90625 C 25.523438 -31.113281 26.523438 -30.03125 27.328125 -28.65625 C 28.140625 -27.289062 28.832031 -25.757812 29.40625 -24.0625 C 29.988281 -22.363281 30.515625 -20.613281 30.984375 -18.8125 C 31.453125 -17.007812 31.957031 -15.257812 32.5 -13.5625 C 33.039062 -11.875 33.691406 -10.347656 34.453125 -8.984375 L 34.5625 -8.984375 C 34.5625 -10.816406 34.765625 -12.785156 35.171875 -14.890625 C 35.585938 -17.003906 36.203125 -19.085938 37.015625 -21.140625 C 37.828125 -23.203125 38.835938 -25.078125 40.046875 -26.765625 C 41.253906 -28.460938 42.660156 -29.816406 44.265625 -30.828125 C 45.867188 -31.835938 47.660156 -32.34375 49.640625 -32.34375 C 51.015625 -32.34375 52.210938 -32.070312 53.234375 -31.53125 C 54.265625 -30.988281 55.285156 -30.300781 56.296875 -29.46875 Z M 56.296875 -29.46875 "/></g></g></g><g fill="#000000" fill-opacity="1"><g transform="translate(49.53659, 35.156509)"><g><path d="M 21.359375 -15.46875 C 21.359375 -15.320312 21.148438 -14.84375 20.734375 -14.03125 C 20.316406 -13.21875 19.789062 -12.222656 19.15625 -11.046875 C 18.53125 -9.878906 17.898438 -8.703125 17.265625 -7.515625 C 16.640625 -6.328125 16.117188 -5.265625 15.703125 -4.328125 C 15.296875 -3.390625 15.09375 -2.738281 15.09375 -2.375 C 15.09375 -2.195312 15.179688 -2.023438 15.359375 -1.859375 C 15.535156 -1.703125 15.71875 -1.625 15.90625 -1.625 C 16.113281 -1.625 16.328125 -1.660156 16.546875 -1.734375 C 16.765625 -1.804688 16.984375 -1.878906 17.203125 -1.953125 L 17.625 -1.03125 C 17.15625 -0.738281 16.734375 -0.492188 16.359375 -0.296875 C 15.984375 -0.0976562 15.597656 0 15.203125 0 C 14.796875 0 14.34375 -0.0703125 13.84375 -0.21875 C 13.34375 -0.363281 12.925781 -0.4375 12.59375 -0.4375 C 12.34375 -0.4375 12.117188 -0.390625 11.921875 -0.296875 C 11.722656 -0.203125 11.515625 -0.101562 11.296875 0 L 10.875 0 L 11.625 -2 L 11.515625 -2.109375 C 11.085938 -1.710938 10.421875 -1.257812 9.515625 -0.75 C 8.617188 -0.25 7.703125 0 6.765625 0 C 6.253906 0 5.644531 -0.109375 4.9375 -0.328125 C 4.238281 -0.546875 3.617188 -0.929688 3.078125 -1.484375 C 2.535156 -2.046875 2.265625 -2.832031 2.265625 -3.84375 C 2.265625 -4.488281 2.4375 -5.242188 2.78125 -6.109375 C 3.125 -6.972656 3.519531 -7.835938 3.96875 -8.703125 C 4.425781 -9.566406 4.820312 -10.320312 5.15625 -10.96875 C 5.5 -11.625 5.671875 -12.039062 5.671875 -12.21875 C 5.671875 -12.46875 5.566406 -12.59375 5.359375 -12.59375 C 5.242188 -12.59375 5.03125 -12.554688 4.71875 -12.484375 C 4.414062 -12.421875 4.160156 -12.351562 3.953125 -12.28125 L 3.5625 -13.578125 L 9.6875 -15.578125 C 9.820312 -15.609375 9.953125 -15.648438 10.078125 -15.703125 C 10.210938 -15.765625 10.347656 -15.796875 10.484375 -15.796875 C 10.742188 -15.796875 10.875 -15.722656 10.875 -15.578125 C 10.875 -15.429688 10.691406 -15.015625 10.328125 -14.328125 C 9.960938 -13.640625 9.519531 -12.800781 9 -11.8125 C 8.476562 -10.820312 7.945312 -9.796875 7.40625 -8.734375 C 6.863281 -7.671875 6.410156 -6.695312 6.046875 -5.8125 C 5.691406 -4.925781 5.515625 -4.269531 5.515625 -3.84375 C 5.515625 -3.476562 5.65625 -3.0625 5.9375 -2.59375 C 6.226562 -2.125 6.71875 -1.890625 7.40625 -1.890625 C 8.457031 -1.890625 9.414062 -2.1875 10.28125 -2.78125 C 11.144531 -3.375 11.898438 -4.195312 12.546875 -5.25 C 13.160156 -6.289062 13.769531 -7.367188 14.375 -8.484375 C 14.988281 -9.609375 15.492188 -10.59375 15.890625 -11.4375 C 16.296875 -12.28125 16.5 -12.757812 16.5 -12.875 C 16.5 -13.019531 16.40625 -13.09375 16.21875 -13.09375 C 16.144531 -13.09375 15.960938 -13.054688 15.671875 -12.984375 C 15.390625 -12.910156 15.101562 -12.835938 14.8125 -12.765625 L 14.546875 -13.84375 L 20.0625 -15.515625 C 20.238281 -15.585938 20.414062 -15.648438 20.59375 -15.703125 C 20.78125 -15.765625 20.925781 -15.796875 21.03125 -15.796875 C 21.25 -15.796875 21.359375 -15.6875 21.359375 -15.46875 Z M 21.359375 -15.46875 "/></g></g></g><g fill="#000000" fill-opacity="1"><g transform="translate(70.571358, 35.156509)"><g><path d="M 19.46875 -12.59375 C 19.46875 -11.695312 19.050781 -10.734375 18.21875 -9.703125 C 17.394531 -8.679688 16.207031 -7.804688 14.65625 -7.078125 C 13.101562 -6.359375 11.265625 -6 9.140625 -6 C 8.597656 -6 8.117188 -6.023438 7.703125 -6.078125 C 7.285156 -6.140625 6.863281 -6.1875 6.4375 -6.21875 C 6.507812 -5.570312 6.707031 -4.90625 7.03125 -4.21875 C 7.351562 -3.53125 7.828125 -2.941406 8.453125 -2.453125 C 9.085938 -1.972656 9.894531 -1.734375 10.875 -1.734375 C 12.019531 -1.734375 13.007812 -1.957031 13.84375 -2.40625 C 14.675781 -2.851562 15.414062 -3.332031 16.0625 -3.84375 L 16.8125 -2.921875 C 16.09375 -2.273438 15.191406 -1.625 14.109375 -0.96875 C 13.023438 -0.320312 11.640625 0 9.953125 0 C 8.796875 0 7.6875 -0.238281 6.625 -0.71875 C 5.5625 -1.207031 4.695312 -1.882812 4.03125 -2.75 C 3.363281 -3.625 3.03125 -4.65625 3.03125 -5.84375 C 3.03125 -7.5 3.441406 -8.945312 4.265625 -10.1875 C 5.097656 -11.4375 6.160156 -12.472656 7.453125 -13.296875 C 8.753906 -14.128906 10.109375 -14.753906 11.515625 -15.171875 C 12.921875 -15.585938 14.21875 -15.796875 15.40625 -15.796875 C 18.113281 -15.796875 19.46875 -14.726562 19.46875 -12.59375 Z M 15.90625 -12.171875 C 15.90625 -13.503906 15.179688 -14.171875 13.734375 -14.171875 C 12.398438 -14.171875 11.253906 -13.84375 10.296875 -13.1875 C 9.347656 -12.539062 8.566406 -11.726562 7.953125 -10.75 C 7.335938 -9.78125 6.882812 -8.773438 6.59375 -7.734375 C 6.914062 -7.691406 7.226562 -7.644531 7.53125 -7.59375 C 7.84375 -7.539062 8.234375 -7.515625 8.703125 -7.515625 C 9.929688 -7.515625 11.085938 -7.726562 12.171875 -8.15625 C 13.253906 -8.59375 14.144531 -9.160156 14.84375 -9.859375 C 15.550781 -10.566406 15.90625 -11.335938 15.90625 -12.171875 Z M 15.90625 -12.171875 "/></g></g></g><g fill="#000000" fill-opacity="1"><g transform="translate(91.606125, 35.156509)"><g><path d="M 13.953125 -12.390625 C 13.953125 -12.023438 13.84375 -11.679688 13.625 -11.359375 C 13.40625 -11.035156 13.097656 -10.875 12.703125 -10.875 C 12.160156 -10.875 11.78125 -11.035156 11.5625 -11.359375 C 11.351562 -11.679688 11.222656 -12.066406 11.171875 -12.515625 C 11.117188 -12.960938 11.023438 -13.347656 10.890625 -13.671875 C 10.765625 -14.003906 10.503906 -14.171875 10.109375 -14.171875 C 9.535156 -14.171875 9.140625 -14 8.921875 -13.65625 C 8.703125 -13.3125 8.59375 -12.921875 8.59375 -12.484375 C 8.59375 -11.835938 8.804688 -11.09375 9.234375 -10.25 C 9.671875 -9.40625 10.097656 -8.546875 10.515625 -7.671875 C 10.929688 -6.804688 11.140625 -5.976562 11.140625 -5.1875 C 11.140625 -3.601562 10.613281 -2.34375 9.5625 -1.40625 C 8.519531 -0.46875 7.28125 0 5.84375 0 C 4.9375 0 4.078125 -0.207031 3.265625 -0.625 C 2.460938 -1.039062 1.796875 -1.570312 1.265625 -2.21875 C 0.742188 -2.863281 0.484375 -3.566406 0.484375 -4.328125 C 0.484375 -4.796875 0.632812 -5.15625 0.9375 -5.40625 C 1.25 -5.65625 1.550781 -5.78125 1.84375 -5.78125 C 2.3125 -5.78125 2.660156 -5.570312 2.890625 -5.15625 C 3.128906 -4.75 3.265625 -4.273438 3.296875 -3.734375 C 3.367188 -3.148438 3.578125 -2.671875 3.921875 -2.296875 C 4.265625 -1.921875 4.757812 -1.734375 5.40625 -1.734375 C 6.195312 -1.734375 6.800781 -1.96875 7.21875 -2.4375 C 7.632812 -2.90625 7.84375 -3.5 7.84375 -4.21875 C 7.84375 -4.71875 7.648438 -5.445312 7.265625 -6.40625 C 6.890625 -7.363281 6.503906 -8.328125 6.109375 -9.296875 C 5.710938 -10.273438 5.515625 -11.050781 5.515625 -11.625 C 5.515625 -12.78125 5.972656 -13.765625 6.890625 -14.578125 C 7.816406 -15.390625 8.910156 -15.796875 10.171875 -15.796875 C 11.210938 -15.796875 12.101562 -15.46875 12.84375 -14.8125 C 13.582031 -14.164062 13.953125 -13.359375 13.953125 -12.390625 Z M 13.953125 -12.390625 "/></g></g></g><g fill="#000000" fill-opacity="1"><g transform="translate(106.638686, 35.156509)"><g><path d="M 16.21875 -26.609375 C 15.5 -25.554688 14.90625 -24.546875 14.4375 -23.578125 C 13.96875 -22.609375 13.5 -21.5 13.03125 -20.25 C 12.5625 -19.007812 11.96875 -17.453125 11.25 -15.578125 L 13.40625 -15.578125 L 12.703125 -13.953125 L 10.703125 -13.953125 C 9.984375 -12.296875 9.304688 -10.867188 8.671875 -9.671875 C 8.046875 -8.484375 7.28125 -7.3125 6.375 -6.15625 C 5.476562 -5.007812 4.273438 -3.675781 2.765625 -2.15625 C 3.085938 -2.195312 3.398438 -2.28125 3.703125 -2.40625 C 4.003906 -2.53125 4.285156 -2.59375 4.546875 -2.59375 C 4.753906 -2.59375 5.019531 -2.546875 5.34375 -2.453125 C 5.675781 -2.367188 5.953125 -2.328125 6.171875 -2.328125 C 6.453125 -2.328125 6.703125 -2.363281 6.921875 -2.4375 C 7.140625 -2.507812 7.375 -2.5625 7.625 -2.59375 L 8.109375 -1.671875 C 7.316406 -0.992188 6.710938 -0.546875 6.296875 -0.328125 C 5.878906 -0.109375 5.421875 0 4.921875 0 C 4.410156 0 3.894531 -0.0703125 3.375 -0.21875 C 2.851562 -0.363281 2.378906 -0.4375 1.953125 -0.4375 C 1.691406 -0.4375 1.414062 -0.390625 1.125 -0.296875 C 0.84375 -0.203125 0.578125 -0.101562 0.328125 0 L -0.375 -0.96875 C 0.988281 -2.664062 2.082031 -4.179688 2.90625 -5.515625 C 3.738281 -6.847656 4.453125 -8.179688 5.046875 -9.515625 C 5.648438 -10.847656 6.289062 -12.328125 6.96875 -13.953125 L 5.078125 -13.953125 L 5.734375 -15.578125 C 6.523438 -15.609375 7.117188 -15.738281 7.515625 -15.96875 C 7.910156 -16.207031 8.234375 -16.597656 8.484375 -17.140625 C 9.535156 -19.160156 10.597656 -21.097656 11.671875 -22.953125 C 12.753906 -24.804688 13.960938 -26.296875 15.296875 -27.421875 Z M 16.21875 -26.609375 "/></g></g></g><g fill="#000000" fill-opacity="1"><g transform="translate(118.6431, 35.156509)"><g><path d="M 19.6875 -13.03125 C 19.6875 -12.3125 19.457031 -11.695312 19 -11.1875 C 18.550781 -10.6875 18.019531 -10.4375 17.40625 -10.4375 C 16.976562 -10.4375 16.628906 -10.570312 16.359375 -10.84375 C 16.085938 -11.113281 15.953125 -11.375 15.953125 -11.625 C 15.953125 -11.875 16.015625 -12.109375 16.140625 -12.328125 C 16.265625 -12.546875 16.328125 -12.78125 16.328125 -13.03125 C 16.328125 -13.207031 16.269531 -13.367188 16.15625 -13.515625 C 16.050781 -13.660156 15.835938 -13.734375 15.515625 -13.734375 C 14.253906 -13.734375 13.09375 -13.378906 12.03125 -12.671875 C 10.96875 -11.972656 10.007812 -11.097656 9.15625 -10.046875 C 8.3125 -9.003906 7.59375 -7.953125 7 -6.890625 C 6.40625 -5.828125 5.953125 -4.90625 5.640625 -4.125 C 5.335938 -3.351562 5.1875 -2.914062 5.1875 -2.8125 C 5.1875 -2.5625 5.25 -2.300781 5.375 -2.03125 C 5.5 -1.757812 5.691406 -1.625 5.953125 -1.625 C 6.273438 -1.625 6.570312 -1.722656 6.84375 -1.921875 C 7.113281 -2.117188 7.375 -2.289062 7.625 -2.4375 L 8.28125 -1.40625 C 8.09375 -1.15625 7.726562 -0.859375 7.1875 -0.515625 C 6.644531 -0.171875 6.085938 0 5.515625 0 C 5.046875 0 4.613281 -0.0625 4.21875 -0.1875 C 3.820312 -0.3125 3.316406 -0.375 2.703125 -0.375 C 2.015625 -0.375 1.472656 -0.3125 1.078125 -0.1875 C 0.679688 -0.0625 0.160156 0 -0.484375 0 C -0.734375 0 -0.96875 -0.0507812 -1.1875 -0.15625 C -1.40625 -0.269531 -1.625 -0.398438 -1.84375 -0.546875 L -1.359375 -1.625 C -0.628906 -1.625 -0.0625 -1.703125 0.34375 -1.859375 C 0.757812 -2.023438 1.148438 -2.347656 1.515625 -2.828125 C 1.878906 -3.316406 2.296875 -4.03125 2.765625 -4.96875 L 5.734375 -10.65625 C 5.835938 -10.875 5.960938 -11.113281 6.109375 -11.375 C 6.253906 -11.644531 6.328125 -11.835938 6.328125 -11.953125 C 6.328125 -12.054688 6.304688 -12.179688 6.265625 -12.328125 C 6.234375 -12.472656 6.128906 -12.546875 5.953125 -12.546875 C 5.804688 -12.546875 5.425781 -12.457031 4.8125 -12.28125 L 4.65625 -13.625 L 10.21875 -15.40625 C 10.4375 -15.519531 10.65625 -15.578125 10.875 -15.578125 C 10.945312 -15.578125 10.984375 -15.484375 10.984375 -15.296875 C 10.984375 -15.117188 10.925781 -14.820312 10.8125 -14.40625 C 10.707031 -14 10.597656 -13.648438 10.484375 -13.359375 L 10.59375 -13.25 C 11.320312 -13.820312 12.207031 -14.390625 13.25 -14.953125 C 14.289062 -15.515625 15.425781 -15.796875 16.65625 -15.796875 C 17.769531 -15.796875 18.550781 -15.523438 19 -14.984375 C 19.457031 -14.441406 19.6875 -13.789062 19.6875 -13.03125 Z M 19.6875 -13.03125 "/></g></g></g><g fill="#000000" fill-opacity="1"><g transform="translate(136.649723, 35.156509)"><g><path d="M 20.328125 -14.984375 C 20.328125 -14.941406 19.929688 -14.164062 19.140625 -12.65625 C 18.347656 -11.144531 17.484375 -9.25 16.546875 -6.96875 C 15.972656 -5.632812 15.585938 -4.644531 15.390625 -4 C 15.191406 -3.351562 15.09375 -2.832031 15.09375 -2.4375 C 15.09375 -2.289062 15.171875 -2.160156 15.328125 -2.046875 C 15.492188 -1.941406 15.664062 -1.890625 15.84375 -1.890625 C 16.0625 -1.890625 16.296875 -2.039062 16.546875 -2.34375 C 16.796875 -2.65625 16.992188 -2.921875 17.140625 -3.140625 L 18.28125 -2.59375 C 18.101562 -2.125 17.734375 -1.570312 17.171875 -0.9375 C 16.609375 -0.3125 16.003906 0 15.359375 0 C 15.109375 0 14.835938 -0.0507812 14.546875 -0.15625 C 14.253906 -0.269531 13.875 -0.328125 13.40625 -0.328125 C 13.195312 -0.328125 12.960938 -0.269531 12.703125 -0.15625 C 12.453125 -0.0507812 12.179688 0 11.890625 0 C 11.679688 0 11.539062 -0.113281 11.46875 -0.34375 C 11.394531 -0.582031 11.359375 -0.789062 11.359375 -0.96875 C 11.359375 -1.15625 11.382812 -1.375 11.4375 -1.625 C 11.488281 -1.875 11.535156 -2.109375 11.578125 -2.328125 C 10.890625 -1.742188 10.09375 -1.207031 9.1875 -0.71875 C 8.289062 -0.238281 7.375 0 6.4375 0 C 4.882812 0 3.664062 -0.492188 2.78125 -1.484375 C 1.894531 -2.472656 1.453125 -3.582031 1.453125 -4.8125 C 1.453125 -6.65625 1.957031 -8.257812 2.96875 -9.625 C 3.976562 -11 5.273438 -12.144531 6.859375 -13.0625 C 8.453125 -13.976562 10.15625 -14.660156 11.96875 -15.109375 C 13.789062 -15.566406 15.535156 -15.796875 17.203125 -15.796875 C 18.023438 -15.796875 18.75 -15.757812 19.375 -15.6875 C 20.007812 -15.613281 20.328125 -15.378906 20.328125 -14.984375 Z M 16.4375 -14.0625 L 14.8125 -14.0625 C 13.945312 -14.0625 12.957031 -13.816406 11.84375 -13.328125 C 10.726562 -12.835938 9.644531 -12.1875 8.59375 -11.375 C 7.550781 -10.570312 6.695312 -9.644531 6.03125 -8.59375 C 5.363281 -7.550781 5.03125 -6.453125 5.03125 -5.296875 C 5.03125 -5.003906 5.109375 -4.632812 5.265625 -4.1875 C 5.429688 -3.738281 5.722656 -3.351562 6.140625 -3.03125 C 6.554688 -2.707031 7.160156 -2.546875 7.953125 -2.546875 C 8.703125 -2.546875 9.4375 -2.757812 10.15625 -3.1875 C 10.882812 -3.625 11.484375 -4.09375 11.953125 -4.59375 C 12.023438 -4.664062 12.140625 -4.835938 12.296875 -5.109375 C 12.460938 -5.378906 12.5625 -5.601562 12.59375 -5.78125 C 13.03125 -7.15625 13.617188 -8.570312 14.359375 -10.03125 C 15.097656 -11.488281 15.789062 -12.832031 16.4375 -14.0625 Z M 16.4375 -14.0625 "/></g></g></g><g fill="#000000" fill-opacity="1"><g transform="translate(157.68449, 35.156509)"><g><path d="M 13.953125 -12.390625 C 13.953125 -12.023438 13.84375 -11.679688 13.625 -11.359375 C 13.40625 -11.035156 13.097656 -10.875 12.703125 -10.875 C 12.160156 -10.875 11.78125 -11.035156 11.5625 -11.359375 C 11.351562 -11.679688 11.222656 -12.066406 11.171875 -12.515625 C 11.117188 -12.960938 11.023438 -13.347656 10.890625 -13.671875 C 10.765625 -14.003906 10.503906 -14.171875 10.109375 -14.171875 C 9.535156 -14.171875 9.140625 -14 8.921875 -13.65625 C 8.703125 -13.3125 8.59375 -12.921875 8.59375 -12.484375 C 8.59375 -11.835938 8.804688 -11.09375 9.234375 -10.25 C 9.671875 -9.40625 10.097656 -8.546875 10.515625 -7.671875 C 10.929688 -6.804688 11.140625 -5.976562 11.140625 -5.1875 C 11.140625 -3.601562 10.613281 -2.34375 9.5625 -1.40625 C 8.519531 -0.46875 7.28125 0 5.84375 0 C 4.9375 0 4.078125 -0.207031 3.265625 -0.625 C 2.460938 -1.039062 1.796875 -1.570312 1.265625 -2.21875 C 0.742188 -2.863281 0.484375 -3.566406 0.484375 -4.328125 C 0.484375 -4.796875 0.632812 -5.15625 0.9375 -5.40625 C 1.25 -5.65625 1.550781 -5.78125 1.84375 -5.78125 C 2.3125 -5.78125 2.660156 -5.570312 2.890625 -5.15625 C 3.128906 -4.75 3.265625 -4.273438 3.296875 -3.734375 C 3.367188 -3.148438 3.578125 -2.671875 3.921875 -2.296875 C 4.265625 -1.921875 4.757812 -1.734375 5.40625 -1.734375 C 6.195312 -1.734375 6.800781 -1.96875 7.21875 -2.4375 C 7.632812 -2.90625 7.84375 -3.5 7.84375 -4.21875 C 7.84375 -4.71875 7.648438 -5.445312 7.265625 -6.40625 C 6.890625 -7.363281 6.503906 -8.328125 6.109375 -9.296875 C 5.710938 -10.273438 5.515625 -11.050781 5.515625 -11.625 C 5.515625 -12.78125 5.972656 -13.765625 6.890625 -14.578125 C 7.816406 -15.390625 8.910156 -15.796875 10.171875 -15.796875 C 11.210938 -15.796875 12.101562 -15.46875 12.84375 -14.8125 C 13.582031 -14.164062 13.953125 -13.359375 13.953125 -12.390625 Z M 13.953125 -12.390625 "/></g></g></g><g fill="#000000" fill-opacity="1"><g transform="translate(172.71705, 35.156509)"><g/></g></g><g fill="#000000" fill-opacity="1"><g transform="translate(184.721465, 35.156509)"><g><path d="M 40.078125 -31.46875 C 38.742188 -30.675781 37.414062 -30.046875 36.09375 -29.578125 C 34.78125 -29.109375 33.1875 -28.875 31.3125 -28.875 C 30.445312 -28.875 29.550781 -28.953125 28.625 -29.109375 C 27.707031 -29.273438 26.78125 -29.46875 25.84375 -29.6875 C 24.945312 -29.863281 24.066406 -30.035156 23.203125 -30.203125 C 22.335938 -30.367188 21.507812 -30.453125 20.71875 -30.453125 C 18.1875 -30.453125 16.328125 -29.765625 15.140625 -28.390625 C 13.953125 -27.023438 13.359375 -25.296875 13.359375 -23.203125 C 13.359375 -21.722656 13.71875 -20.476562 14.4375 -19.46875 L 13.140625 -18.609375 C 12.773438 -19.210938 12.429688 -19.863281 12.109375 -20.5625 C 11.785156 -21.269531 11.625 -22.238281 11.625 -23.46875 C 11.625 -25.050781 11.984375 -26.570312 12.703125 -28.03125 C 13.429688 -29.5 14.5625 -30.707031 16.09375 -31.65625 C 17.625 -32.613281 19.578125 -33.09375 21.953125 -33.09375 C 22.929688 -33.09375 23.921875 -33.007812 24.921875 -32.84375 C 25.929688 -32.6875 26.941406 -32.5 27.953125 -32.28125 C 29.003906 -32.101562 30.066406 -31.921875 31.140625 -31.734375 C 32.222656 -31.554688 33.328125 -31.46875 34.453125 -31.46875 C 35.273438 -31.46875 36.109375 -31.578125 36.953125 -31.796875 C 37.804688 -32.015625 38.628906 -32.269531 39.421875 -32.5625 Z M 46.671875 -31.46875 C 45.585938 -30.132812 44.75 -28.71875 44.15625 -27.21875 C 43.5625 -25.726562 43.046875 -24.085938 42.609375 -22.296875 C 42.179688 -20.515625 41.625 -18.507812 40.9375 -16.28125 C 40.570312 -15.09375 40.082031 -13.765625 39.46875 -12.296875 C 38.863281 -10.835938 38.242188 -9.414062 37.609375 -8.03125 C 36.984375 -6.644531 36.453125 -5.460938 36.015625 -4.484375 C 35.578125 -3.515625 35.359375 -2.941406 35.359375 -2.765625 C 35.359375 -2.503906 35.441406 -2.265625 35.609375 -2.046875 C 35.773438 -1.835938 36.054688 -1.734375 36.453125 -1.734375 C 37.023438 -1.734375 37.566406 -1.929688 38.078125 -2.328125 L 38.875 -1.25 C 38.375 -0.882812 37.914062 -0.582031 37.5 -0.34375 C 37.082031 -0.113281 36.5 0 35.75 0 C 35.09375 0 34.539062 -0.0859375 34.09375 -0.265625 C 33.644531 -0.453125 33.148438 -0.546875 32.609375 -0.546875 C 32.035156 -0.546875 31.546875 -0.5 31.140625 -0.40625 C 30.742188 -0.3125 30.332031 -0.175781 29.90625 0 L 29.3125 -0.859375 C 30.570312 -2.128906 31.578125 -3.359375 32.328125 -4.546875 C 33.085938 -5.734375 33.753906 -7.003906 34.328125 -8.359375 C 34.910156 -9.710938 35.5625 -11.269531 36.28125 -13.03125 L 31.640625 -13.296875 C 31.273438 -13.335938 30.945312 -13.363281 30.65625 -13.375 C 30.375 -13.394531 30.125 -13.40625 29.90625 -13.40625 C 29.6875 -13.40625 29.476562 -13.285156 29.28125 -13.046875 C 29.082031 -12.816406 28.835938 -12.503906 28.546875 -12.109375 C 27.003906 -9.984375 25.382812 -7.992188 23.6875 -6.140625 C 21.988281 -4.285156 20.175781 -2.796875 18.25 -1.671875 C 16.320312 -0.554688 14.238281 0 12 0 C 10.3125 0 8.925781 -0.332031 7.84375 -1 C 6.757812 -1.664062 5.921875 -2.457031 5.328125 -3.375 C 4.734375 -4.300781 4.3125 -5.140625 4.0625 -5.890625 L 5.359375 -6.546875 C 5.710938 -5.785156 6.160156 -5.035156 6.703125 -4.296875 C 7.242188 -3.554688 7.957031 -2.941406 8.84375 -2.453125 C 9.726562 -1.972656 10.835938 -1.734375 12.171875 -1.734375 C 13.359375 -1.734375 14.582031 -2.128906 15.84375 -2.921875 C 17.101562 -3.710938 18.363281 -4.75 19.625 -6.03125 C 20.882812 -7.3125 22.117188 -8.722656 23.328125 -10.265625 C 24.535156 -11.816406 25.679688 -13.359375 26.765625 -14.890625 C 27.847656 -16.429688 28.820312 -17.847656 29.6875 -19.140625 C 30.550781 -20.441406 31.273438 -21.46875 31.859375 -22.21875 C 32.972656 -23.664062 34.003906 -24.910156 34.953125 -25.953125 C 35.910156 -27.003906 36.894531 -27.914062 37.90625 -28.6875 C 38.914062 -29.457031 40.050781 -30.148438 41.3125 -30.765625 C 42.570312 -31.378906 44.066406 -31.976562 45.796875 -32.5625 Z M 43.859375 -30.28125 L 43.75 -30.390625 C 42.050781 -29.597656 40.507812 -28.488281 39.125 -27.0625 C 37.738281 -25.644531 36.378906 -23.929688 35.046875 -21.921875 C 33.710938 -19.921875 32.234375 -17.644531 30.609375 -15.09375 L 36.828125 -14.765625 C 37.515625 -16.710938 38.144531 -18.515625 38.71875 -20.171875 C 39.289062 -21.828125 39.960938 -23.46875 40.734375 -25.09375 C 41.515625 -26.71875 42.554688 -28.445312 43.859375 -30.28125 Z M 43.859375 -30.28125 "/></g></g></g><g fill="#000000" fill-opacity="1"><g transform="translate(226.791001, 35.156509)"><g><path d="M 16.984375 -10.8125 C 16.984375 -9.40625 16.703125 -8.050781 16.140625 -6.75 C 15.578125 -5.457031 14.835938 -4.304688 13.921875 -3.296875 C 13.003906 -2.285156 11.984375 -1.484375 10.859375 -0.890625 C 9.742188 -0.296875 8.628906 0 7.515625 0 C 5.890625 0 4.445312 -0.421875 3.1875 -1.265625 C 1.925781 -2.117188 1.296875 -3.410156 1.296875 -5.140625 C 1.296875 -6.109375 1.484375 -6.972656 1.859375 -7.734375 C 2.242188 -8.492188 2.6875 -9.160156 3.1875 -9.734375 C 3.695312 -10.304688 4.140625 -10.789062 4.515625 -11.1875 C 4.890625 -11.582031 5.078125 -11.875 5.078125 -12.0625 C 5.078125 -12.164062 4.898438 -12.21875 4.546875 -12.21875 C 4.285156 -12.21875 3.941406 -12.109375 3.515625 -11.890625 L 3.140625 -12.921875 L 8.921875 -15.515625 C 9.210938 -15.703125 9.410156 -15.796875 9.515625 -15.796875 C 9.835938 -15.796875 10 -15.628906 10 -15.296875 C 10 -14.941406 9.78125 -14.457031 9.34375 -13.84375 C 8.914062 -13.226562 8.378906 -12.453125 7.734375 -11.515625 C 6.722656 -10.109375 5.898438 -8.789062 5.265625 -7.5625 C 4.640625 -6.34375 4.328125 -5.207031 4.328125 -4.15625 C 4.328125 -3.40625 4.613281 -2.796875 5.1875 -2.328125 C 5.769531 -1.859375 6.472656 -1.625 7.296875 -1.625 C 8.523438 -1.625 9.6875 -2.109375 10.78125 -3.078125 C 11.882812 -4.054688 12.785156 -5.289062 13.484375 -6.78125 C 14.191406 -8.28125 14.546875 -9.804688 14.546875 -11.359375 C 14.546875 -11.972656 14.460938 -12.566406 14.296875 -13.140625 C 14.140625 -13.710938 13.972656 -14.253906 13.796875 -14.765625 L 15.203125 -15.796875 C 15.523438 -15.429688 15.898438 -14.757812 16.328125 -13.78125 C 16.765625 -12.8125 16.984375 -11.820312 16.984375 -10.8125 Z M 16.984375 -10.8125 "/></g></g></g><g fill="#000000" fill-opacity="1"><g transform="translate(244.797623, 35.156509)"><g><path d="M 19.46875 -12.59375 C 19.46875 -11.695312 19.050781 -10.734375 18.21875 -9.703125 C 17.394531 -8.679688 16.207031 -7.804688 14.65625 -7.078125 C 13.101562 -6.359375 11.265625 -6 9.140625 -6 C 8.597656 -6 8.117188 -6.023438 7.703125 -6.078125 C 7.285156 -6.140625 6.863281 -6.1875 6.4375 -6.21875 C 6.507812 -5.570312 6.707031 -4.90625 7.03125 -4.21875 C 7.351562 -3.53125 7.828125 -2.941406 8.453125 -2.453125 C 9.085938 -1.972656 9.894531 -1.734375 10.875 -1.734375 C 12.019531 -1.734375 13.007812 -1.957031 13.84375 -2.40625 C 14.675781 -2.851562 15.414062 -3.332031 16.0625 -3.84375 L 16.8125 -2.921875 C 16.09375 -2.273438 15.191406 -1.625 14.109375 -0.96875 C 13.023438 -0.320312 11.640625 0 9.953125 0 C 8.796875 0 7.6875 -0.238281 6.625 -0.71875 C 5.5625 -1.207031 4.695312 -1.882812 4.03125 -2.75 C 3.363281 -3.625 3.03125 -4.65625 3.03125 -5.84375 C 3.03125 -7.5 3.441406 -8.945312 4.265625 -10.1875 C 5.097656 -11.4375 6.160156 -12.472656 7.453125 -13.296875 C 8.753906 -14.128906 10.109375 -14.753906 11.515625 -15.171875 C 12.921875 -15.585938 14.21875 -15.796875 15.40625 -15.796875 C 18.113281 -15.796875 19.46875 -14.726562 19.46875 -12.59375 Z M 15.90625 -12.171875 C 15.90625 -13.503906 15.179688 -14.171875 13.734375 -14.171875 C 12.398438 -14.171875 11.253906 -13.84375 10.296875 -13.1875 C 9.347656 -12.539062 8.566406 -11.726562 7.953125 -10.75 C 7.335938 -9.78125 6.882812 -8.773438 6.59375 -7.734375 C 6.914062 -7.691406 7.226562 -7.644531 7.53125 -7.59375 C 7.84375 -7.539062 8.234375 -7.515625 8.703125 -7.515625 C 9.929688 -7.515625 11.085938 -7.726562 12.171875 -8.15625 C 13.253906 -8.59375 14.144531 -9.160156 14.84375 -9.859375 C 15.550781 -10.566406 15.90625 -11.335938 15.90625 -12.171875 Z M 15.90625 -12.171875 "/></g></g></g><g fill="#000000" fill-opacity="1"><g transform="translate(265.83239, 35.156509)"><g><path d="M 19.6875 -11.84375 C 19.6875 -11.082031 19.441406 -10.210938 18.953125 -9.234375 C 18.460938 -8.265625 17.863281 -7.300781 17.15625 -6.34375 C 16.457031 -5.394531 15.773438 -4.53125 15.109375 -3.75 C 14.441406 -2.976562 13.929688 -2.394531 13.578125 -2 C 13.859375 -2.039062 14.113281 -2.085938 14.34375 -2.140625 C 14.582031 -2.191406 14.867188 -2.21875 15.203125 -2.21875 C 15.453125 -2.21875 15.691406 -2.191406 15.921875 -2.140625 C 16.160156 -2.085938 16.351562 -2.0625 16.5 -2.0625 C 16.851562 -2.0625 17.191406 -2.164062 17.515625 -2.375 L 18.109375 -1.625 C 17.753906 -1.226562 17.3125 -0.859375 16.78125 -0.515625 C 16.257812 -0.171875 15.710938 0 15.140625 0 C 14.640625 0 14.144531 -0.0625 13.65625 -0.1875 C 13.164062 -0.3125 12.671875 -0.375 12.171875 -0.375 C 11.804688 -0.375 11.488281 -0.335938 11.21875 -0.265625 C 10.945312 -0.191406 10.703125 -0.101562 10.484375 0 L 10.109375 -0.859375 C 10.867188 -1.660156 11.734375 -2.644531 12.703125 -3.8125 C 13.679688 -4.976562 14.53125 -6.210938 15.25 -7.515625 C 15.96875 -8.816406 16.328125 -10.039062 16.328125 -11.1875 C 16.328125 -11.582031 16.144531 -12.050781 15.78125 -12.59375 C 15.425781 -13.132812 14.816406 -13.40625 13.953125 -13.40625 C 13.085938 -13.40625 12.210938 -13.050781 11.328125 -12.34375 C 10.441406 -11.644531 9.601562 -10.765625 8.8125 -9.703125 C 8.019531 -8.640625 7.316406 -7.554688 6.703125 -6.453125 C 6.085938 -5.359375 5.597656 -4.414062 5.234375 -3.625 C 4.878906 -2.832031 4.703125 -2.363281 4.703125 -2.21875 C 4.703125 -2.039062 4.8125 -1.914062 5.03125 -1.84375 C 5.25 -1.769531 5.445312 -1.734375 5.625 -1.734375 C 5.800781 -1.734375 5.96875 -1.773438 6.125 -1.859375 C 6.289062 -1.953125 6.46875 -2.019531 6.65625 -2.0625 L 7.25 -0.96875 C 6.707031 -0.613281 6.238281 -0.363281 5.84375 -0.21875 C 5.445312 -0.0703125 4.957031 0 4.375 0 C 3.945312 0 3.535156 -0.0507812 3.140625 -0.15625 C 2.742188 -0.269531 2.328125 -0.328125 1.890625 -0.328125 C 1.421875 -0.328125 1.015625 -0.269531 0.671875 -0.15625 C 0.328125 -0.0507812 -0.113281 0 -0.65625 0 C -1.050781 0 -1.410156 -0.0507812 -1.734375 -0.15625 L -1.515625 -1.359375 C -0.609375 -1.359375 0.03125 -1.554688 0.40625 -1.953125 C 0.78125 -2.347656 1.257812 -2.992188 1.84375 -3.890625 C 3.0625 -5.835938 4.019531 -7.523438 4.71875 -8.953125 C 5.425781 -10.378906 5.78125 -11.234375 5.78125 -11.515625 C 5.78125 -12.054688 5.507812 -12.328125 4.96875 -12.328125 C 4.71875 -12.328125 4.445312 -12.273438 4.15625 -12.171875 L 3.890625 -13.40625 L 10.21875 -15.359375 C 10.363281 -15.179688 10.4375 -14.960938 10.4375 -14.703125 C 10.4375 -14.566406 10.375 -14.296875 10.25 -13.890625 C 10.125 -13.492188 10.003906 -13.191406 9.890625 -12.984375 L 10 -12.875 C 10.832031 -13.695312 11.707031 -14.390625 12.625 -14.953125 C 13.539062 -15.515625 14.6875 -15.796875 16.0625 -15.796875 C 16.957031 -15.796875 17.785156 -15.492188 18.546875 -14.890625 C 19.304688 -14.296875 19.6875 -13.28125 19.6875 -11.84375 Z M 19.6875 -11.84375 "/></g></g></g><g fill="#000000" fill-opacity="1"><g transform="translate(286.867158, 35.156509)"><g><path d="M 16.21875 -26.609375 C 15.5 -25.554688 14.90625 -24.546875 14.4375 -23.578125 C 13.96875 -22.609375 13.5 -21.5 13.03125 -20.25 C 12.5625 -19.007812 11.96875 -17.453125 11.25 -15.578125 L 13.40625 -15.578125 L 12.703125 -13.953125 L 10.703125 -13.953125 C 9.984375 -12.296875 9.304688 -10.867188 8.671875 -9.671875 C 8.046875 -8.484375 7.28125 -7.3125 6.375 -6.15625 C 5.476562 -5.007812 4.273438 -3.675781 2.765625 -2.15625 C 3.085938 -2.195312 3.398438 -2.28125 3.703125 -2.40625 C 4.003906 -2.53125 4.285156 -2.59375 4.546875 -2.59375 C 4.753906 -2.59375 5.019531 -2.546875 5.34375 -2.453125 C 5.675781 -2.367188 5.953125 -2.328125 6.171875 -2.328125 C 6.453125 -2.328125 6.703125 -2.363281 6.921875 -2.4375 C 7.140625 -2.507812 7.375 -2.5625 7.625 -2.59375 L 8.109375 -1.671875 C 7.316406 -0.992188 6.710938 -0.546875 6.296875 -0.328125 C 5.878906 -0.109375 5.421875 0 4.921875 0 C 4.410156 0 3.894531 -0.0703125 3.375 -0.21875 C 2.851562 -0.363281 2.378906 -0.4375 1.953125 -0.4375 C 1.691406 -0.4375 1.414062 -0.390625 1.125 -0.296875 C 0.84375 -0.203125 0.578125 -0.101562 0.328125 0 L -0.375 -0.96875 C 0.988281 -2.664062 2.082031 -4.179688 2.90625 -5.515625 C 3.738281 -6.847656 4.453125 -8.179688 5.046875 -9.515625 C 5.648438 -10.847656 6.289062 -12.328125 6.96875 -13.953125 L 5.078125 -13.953125 L 5.734375 -15.578125 C 6.523438 -15.609375 7.117188 -15.738281 7.515625 -15.96875 C 7.910156 -16.207031 8.234375 -16.597656 8.484375 -17.140625 C 9.535156 -19.160156 10.597656 -21.097656 11.671875 -22.953125 C 12.753906 -24.804688 13.960938 -26.296875 15.296875 -27.421875 Z M 16.21875 -26.609375 "/></g></g></g><g fill="#000000" fill-opacity="1"><g transform="translate(298.871573, 35.156509)"><g><path d="M 21.359375 -15.46875 C 21.359375 -15.320312 21.148438 -14.84375 20.734375 -14.03125 C 20.316406 -13.21875 19.789062 -12.222656 19.15625 -11.046875 C 18.53125 -9.878906 17.898438 -8.703125 17.265625 -7.515625 C 16.640625 -6.328125 16.117188 -5.265625 15.703125 -4.328125 C 15.296875 -3.390625 15.09375 -2.738281 15.09375 -2.375 C 15.09375 -2.195312 15.179688 -2.023438 15.359375 -1.859375 C 15.535156 -1.703125 15.71875 -1.625 15.90625 -1.625 C 16.113281 -1.625 16.328125 -1.660156 16.546875 -1.734375 C 16.765625 -1.804688 16.984375 -1.878906 17.203125 -1.953125 L 17.625 -1.03125 C 17.15625 -0.738281 16.734375 -0.492188 16.359375 -0.296875 C 15.984375 -0.0976562 15.597656 0 15.203125 0 C 14.796875 0 14.34375 -0.0703125 13.84375 -0.21875 C 13.34375 -0.363281 12.925781 -0.4375 12.59375 -0.4375 C 12.34375 -0.4375 12.117188 -0.390625 11.921875 -0.296875 C 11.722656 -0.203125 11.515625 -0.101562 11.296875 0 L 10.875 0 L 11.625 -2 L 11.515625 -2.109375 C 11.085938 -1.710938 10.421875 -1.257812 9.515625 -0.75 C 8.617188 -0.25 7.703125 0 6.765625 0 C 6.253906 0 5.644531 -0.109375 4.9375 -0.328125 C 4.238281 -0.546875 3.617188 -0.929688 3.078125 -1.484375 C 2.535156 -2.046875 2.265625 -2.832031 2.265625 -3.84375 C 2.265625 -4.488281 2.4375 -5.242188 2.78125 -6.109375 C 3.125 -6.972656 3.519531 -7.835938 3.96875 -8.703125 C 4.425781 -9.566406 4.820312 -10.320312 5.15625 -10.96875 C 5.5 -11.625 5.671875 -12.039062 5.671875 -12.21875 C 5.671875 -12.46875 5.566406 -12.59375 5.359375 -12.59375 C 5.242188 -12.59375 5.03125 -12.554688 4.71875 -12.484375 C 4.414062 -12.421875 4.160156 -12.351562 3.953125 -12.28125 L 3.5625 -13.578125 L 9.6875 -15.578125 C 9.820312 -15.609375 9.953125 -15.648438 10.078125 -15.703125 C 10.210938 -15.765625 10.347656 -15.796875 10.484375 -15.796875 C 10.742188 -15.796875 10.875 -15.722656 10.875 -15.578125 C 10.875 -15.429688 10.691406 -15.015625 10.328125 -14.328125 C 9.960938 -13.640625 9.519531 -12.800781 9 -11.8125 C 8.476562 -10.820312 7.945312 -9.796875 7.40625 -8.734375 C 6.863281 -7.671875 6.410156 -6.695312 6.046875 -5.8125 C 5.691406 -4.925781 5.515625 -4.269531 5.515625 -3.84375 C 5.515625 -3.476562 5.65625 -3.0625 5.9375 -2.59375 C 6.226562 -2.125 6.71875 -1.890625 7.40625 -1.890625 C 8.457031 -1.890625 9.414062 -2.1875 10.28125 -2.78125 C 11.144531 -3.375 11.898438 -4.195312 12.546875 -5.25 C 13.160156 -6.289062 13.769531 -7.367188 14.375 -8.484375 C 14.988281 -9.609375 15.492188 -10.59375 15.890625 -11.4375 C 16.296875 -12.28125 16.5 -12.757812 16.5 -12.875 C 16.5 -13.019531 16.40625 -13.09375 16.21875 -13.09375 C 16.144531 -13.09375 15.960938 -13.054688 15.671875 -12.984375 C 15.390625 -12.910156 15.101562 -12.835938 14.8125 -12.765625 L 14.546875 -13.84375 L 20.0625 -15.515625 C 20.238281 -15.585938 20.414062 -15.648438 20.59375 -15.703125 C 20.78125 -15.765625 20.925781 -15.796875 21.03125 -15.796875 C 21.25 -15.796875 21.359375 -15.6875 21.359375 -15.46875 Z M 21.359375 -15.46875 "/></g></g></g><g fill="#000000" fill-opacity="1"><g transform="translate(319.90634, 35.156509)"><g><path d="M 19.6875 -13.03125 C 19.6875 -12.3125 19.457031 -11.695312 19 -11.1875 C 18.550781 -10.6875 18.019531 -10.4375 17.40625 -10.4375 C 16.976562 -10.4375 16.628906 -10.570312 16.359375 -10.84375 C 16.085938 -11.113281 15.953125 -11.375 15.953125 -11.625 C 15.953125 -11.875 16.015625 -12.109375 16.140625 -12.328125 C 16.265625 -12.546875 16.328125 -12.78125 16.328125 -13.03125 C 16.328125 -13.207031 16.269531 -13.367188 16.15625 -13.515625 C 16.050781 -13.660156 15.835938 -13.734375 15.515625 -13.734375 C 14.253906 -13.734375 13.09375 -13.378906 12.03125 -12.671875 C 10.96875 -11.972656 10.007812 -11.097656 9.15625 -10.046875 C 8.3125 -9.003906 7.59375 -7.953125 7 -6.890625 C 6.40625 -5.828125 5.953125 -4.90625 5.640625 -4.125 C 5.335938 -3.351562 5.1875 -2.914062 5.1875 -2.8125 C 5.1875 -2.5625 5.25 -2.300781 5.375 -2.03125 C 5.5 -1.757812 5.691406 -1.625 5.953125 -1.625 C 6.273438 -1.625 6.570312 -1.722656 6.84375 -1.921875 C 7.113281 -2.117188 7.375 -2.289062 7.625 -2.4375 L 8.28125 -1.40625 C 8.09375 -1.15625 7.726562 -0.859375 7.1875 -0.515625 C 6.644531 -0.171875 6.085938 0 5.515625 0 C 5.046875 0 4.613281 -0.0625 4.21875 -0.1875 C 3.820312 -0.3125 3.316406 -0.375 2.703125 -0.375 C 2.015625 -0.375 1.472656 -0.3125 1.078125 -0.1875 C 0.679688 -0.0625 0.160156 0 -0.484375 0 C -0.734375 0 -0.96875 -0.0507812 -1.1875 -0.15625 C -1.40625 -0.269531 -1.625 -0.398438 -1.84375 -0.546875 L -1.359375 -1.625 C -0.628906 -1.625 -0.0625 -1.703125 0.34375 -1.859375 C 0.757812 -2.023438 1.148438 -2.347656 1.515625 -2.828125 C 1.878906 -3.316406 2.296875 -4.03125 2.765625 -4.96875 L 5.734375 -10.65625 C 5.835938 -10.875 5.960938 -11.113281 6.109375 -11.375 C 6.253906 -11.644531 6.328125 -11.835938 6.328125 -11.953125 C 6.328125 -12.054688 6.304688 -12.179688 6.265625 -12.328125 C 6.234375 -12.472656 6.128906 -12.546875 5.953125 -12.546875 C 5.804688 -12.546875 5.425781 -12.457031 4.8125 -12.28125 L 4.65625 -13.625 L 10.21875 -15.40625 C 10.4375 -15.519531 10.65625 -15.578125 10.875 -15.578125 C 10.945312 -15.578125 10.984375 -15.484375 10.984375 -15.296875 C 10.984375 -15.117188 10.925781 -14.820312 10.8125 -14.40625 C 10.707031 -14 10.597656 -13.648438 10.484375 -13.359375 L 10.59375 -13.25 C 11.320312 -13.820312 12.207031 -14.390625 13.25 -14.953125 C 14.289062 -15.515625 15.425781 -15.796875 16.65625 -15.796875 C 17.769531 -15.796875 18.550781 -15.523438 19 -14.984375 C 19.457031 -14.441406 19.6875 -13.789062 19.6875 -13.03125 Z M 19.6875 -13.03125 "/></g></g></g><g fill="#000000" fill-opacity="1"><g transform="translate(337.912962, 35.156509)"><g><path d="M 20.328125 -14.984375 C 20.328125 -14.941406 19.929688 -14.164062 19.140625 -12.65625 C 18.347656 -11.144531 17.484375 -9.25 16.546875 -6.96875 C 15.972656 -5.632812 15.585938 -4.644531 15.390625 -4 C 15.191406 -3.351562 15.09375 -2.832031 15.09375 -2.4375 C 15.09375 -2.289062 15.171875 -2.160156 15.328125 -2.046875 C 15.492188 -1.941406 15.664062 -1.890625 15.84375 -1.890625 C 16.0625 -1.890625 16.296875 -2.039062 16.546875 -2.34375 C 16.796875 -2.65625 16.992188 -2.921875 17.140625 -3.140625 L 18.28125 -2.59375 C 18.101562 -2.125 17.734375 -1.570312 17.171875 -0.9375 C 16.609375 -0.3125 16.003906 0 15.359375 0 C 15.109375 0 14.835938 -0.0507812 14.546875 -0.15625 C 14.253906 -0.269531 13.875 -0.328125 13.40625 -0.328125 C 13.195312 -0.328125 12.960938 -0.269531 12.703125 -0.15625 C 12.453125 -0.0507812 12.179688 0 11.890625 0 C 11.679688 0 11.539062 -0.113281 11.46875 -0.34375 C 11.394531 -0.582031 11.359375 -0.789062 11.359375 -0.96875 C 11.359375 -1.15625 11.382812 -1.375 11.4375 -1.625 C 11.488281 -1.875 11.535156 -2.109375 11.578125 -2.328125 C 10.890625 -1.742188 10.09375 -1.207031 9.1875 -0.71875 C 8.289062 -0.238281 7.375 0 6.4375 0 C 4.882812 0 3.664062 -0.492188 2.78125 -1.484375 C 1.894531 -2.472656 1.453125 -3.582031 1.453125 -4.8125 C 1.453125 -6.65625 1.957031 -8.257812 2.96875 -9.625 C 3.976562 -11 5.273438 -12.144531 6.859375 -13.0625 C 8.453125 -13.976562 10.15625 -14.660156 11.96875 -15.109375 C 13.789062 -15.566406 15.535156 -15.796875 17.203125 -15.796875 C 18.023438 -15.796875 18.75 -15.757812 19.375 -15.6875 C 20.007812 -15.613281 20.328125 -15.378906 20.328125 -14.984375 Z M 16.4375 -14.0625 L 14.8125 -14.0625 C 13.945312 -14.0625 12.957031 -13.816406 11.84375 -13.328125 C 10.726562 -12.835938 9.644531 -12.1875 8.59375 -11.375 C 7.550781 -10.570312 6.695312 -9.644531 6.03125 -8.59375 C 5.363281 -7.550781 5.03125 -6.453125 5.03125 -5.296875 C 5.03125 -5.003906 5.109375 -4.632812 5.265625 -4.1875 C 5.429688 -3.738281 5.722656 -3.351562 6.140625 -3.03125 C 6.554688 -2.707031 7.160156 -2.546875 7.953125 -2.546875 C 8.703125 -2.546875 9.4375 -2.757812 10.15625 -3.1875 C 10.882812 -3.625 11.484375 -4.09375 11.953125 -4.59375 C 12.023438 -4.664062 12.140625 -4.835938 12.296875 -5.109375 C 12.460938 -5.378906 12.5625 -5.601562 12.59375 -5.78125 C 13.03125 -7.15625 13.617188 -8.570312 14.359375 -10.03125 C 15.097656 -11.488281 15.789062 -12.832031 16.4375 -14.0625 Z M 16.4375 -14.0625 "/></g></g></g><g fill="#000000" fill-opacity="1"><g transform="translate(358.94773, 35.156509)"><g><path d="M 13.953125 -12.390625 C 13.953125 -12.023438 13.84375 -11.679688 13.625 -11.359375 C 13.40625 -11.035156 13.097656 -10.875 12.703125 -10.875 C 12.160156 -10.875 11.78125 -11.035156 11.5625 -11.359375 C 11.351562 -11.679688 11.222656 -12.066406 11.171875 -12.515625 C 11.117188 -12.960938 11.023438 -13.347656 10.890625 -13.671875 C 10.765625 -14.003906 10.503906 -14.171875 10.109375 -14.171875 C 9.535156 -14.171875 9.140625 -14 8.921875 -13.65625 C 8.703125 -13.3125 8.59375 -12.921875 8.59375 -12.484375 C 8.59375 -11.835938 8.804688 -11.09375 9.234375 -10.25 C 9.671875 -9.40625 10.097656 -8.546875 10.515625 -7.671875 C 10.929688 -6.804688 11.140625 -5.976562 11.140625 -5.1875 C 11.140625 -3.601562 10.613281 -2.34375 9.5625 -1.40625 C 8.519531 -0.46875 7.28125 0 5.84375 0 C 4.9375 0 4.078125 -0.207031 3.265625 -0.625 C 2.460938 -1.039062 1.796875 -1.570312 1.265625 -2.21875 C 0.742188 -2.863281 0.484375 -3.566406 0.484375 -4.328125 C 0.484375 -4.796875 0.632812 -5.15625 0.9375 -5.40625 C 1.25 -5.65625 1.550781 -5.78125 1.84375 -5.78125 C 2.3125 -5.78125 2.660156 -5.570312 2.890625 -5.15625 C 3.128906 -4.75 3.265625 -4.273438 3.296875 -3.734375 C 3.367188 -3.148438 3.578125 -2.671875 3.921875 -2.296875 C 4.265625 -1.921875 4.757812 -1.734375 5.40625 -1.734375 C 6.195312 -1.734375 6.800781 -1.96875 7.21875 -2.4375 C 7.632812 -2.90625 7.84375 -3.5 7.84375 -4.21875 C 7.84375 -4.71875 7.648438 -5.445312 7.265625 -6.40625 C 6.890625 -7.363281 6.503906 -8.328125 6.109375 -9.296875 C 5.710938 -10.273438 5.515625 -11.050781 5.515625 -11.625 C 5.515625 -12.78125 5.972656 -13.765625 6.890625 -14.578125 C 7.816406 -15.390625 8.910156 -15.796875 10.171875 -15.796875 C 11.210938 -15.796875 12.101562 -15.46875 12.84375 -14.8125 C 13.582031 -14.164062 13.953125 -13.359375 13.953125 -12.390625 Z M 13.953125 -12.390625 "/></g></g></g><g fill="#000000" fill-opacity="1"><g transform="translate(31.846107, 85.005658)"><g><path d="M 40.0625 -31.46875 C 38.726562 -30.675781 37.398438 -30.046875 36.078125 -29.578125 C 34.765625 -29.109375 33.171875 -28.875 31.296875 -28.875 C 30.429688 -28.875 29.539062 -28.953125 28.625 -29.109375 C 27.707031 -29.273438 26.78125 -29.46875 25.84375 -29.6875 C 24.9375 -29.863281 24.050781 -30.03125 23.1875 -30.1875 C 22.320312 -30.351562 21.492188 -30.4375 20.703125 -30.4375 C 18.179688 -30.4375 16.328125 -29.75 15.140625 -28.375 C 13.953125 -27.007812 13.359375 -25.28125 13.359375 -23.1875 C 13.359375 -21.707031 13.71875 -20.46875 14.4375 -19.46875 L 13.140625 -18.59375 C 12.773438 -19.207031 12.429688 -19.863281 12.109375 -20.5625 C 11.785156 -21.269531 11.625 -22.238281 11.625 -23.46875 C 11.625 -25.050781 11.984375 -26.570312 12.703125 -28.03125 C 13.421875 -29.488281 14.546875 -30.695312 16.078125 -31.65625 C 17.609375 -32.613281 19.566406 -33.09375 21.953125 -33.09375 C 22.921875 -33.09375 23.910156 -33.007812 24.921875 -32.84375 C 25.929688 -32.675781 26.941406 -32.488281 27.953125 -32.28125 C 28.992188 -32.09375 30.054688 -31.910156 31.140625 -31.734375 C 32.222656 -31.554688 33.320312 -31.46875 34.4375 -31.46875 C 35.269531 -31.46875 36.109375 -31.570312 36.953125 -31.78125 C 37.796875 -32 38.613281 -32.253906 39.40625 -32.546875 Z M 46.65625 -31.46875 C 45.570312 -30.132812 44.734375 -28.71875 44.140625 -27.21875 C 43.546875 -25.726562 43.03125 -24.085938 42.59375 -22.296875 C 42.164062 -20.515625 41.609375 -18.503906 40.921875 -16.265625 C 40.566406 -15.078125 40.082031 -13.753906 39.46875 -12.296875 C 38.851562 -10.835938 38.226562 -9.414062 37.59375 -8.03125 C 36.96875 -6.644531 36.4375 -5.460938 36 -4.484375 C 35.570312 -3.515625 35.359375 -2.9375 35.359375 -2.75 C 35.359375 -2.5 35.4375 -2.265625 35.59375 -2.046875 C 35.757812 -1.835938 36.039062 -1.734375 36.4375 -1.734375 C 37.007812 -1.734375 37.550781 -1.929688 38.0625 -2.328125 L 38.875 -1.25 C 38.363281 -0.882812 37.898438 -0.582031 37.484375 -0.34375 C 37.078125 -0.113281 36.492188 0 35.734375 0 C 35.085938 0 34.535156 -0.0859375 34.078125 -0.265625 C 33.628906 -0.453125 33.132812 -0.546875 32.59375 -0.546875 C 32.019531 -0.546875 31.535156 -0.5 31.140625 -0.40625 C 30.742188 -0.3125 30.328125 -0.175781 29.890625 0 L 29.296875 -0.859375 C 30.554688 -2.117188 31.566406 -3.34375 32.328125 -4.53125 C 33.085938 -5.726562 33.753906 -7 34.328125 -8.34375 C 34.898438 -9.695312 35.550781 -11.257812 36.28125 -13.03125 L 31.625 -13.296875 C 31.269531 -13.335938 30.945312 -13.363281 30.65625 -13.375 C 30.363281 -13.394531 30.109375 -13.40625 29.890625 -13.40625 C 29.679688 -13.40625 29.476562 -13.285156 29.28125 -13.046875 C 29.082031 -12.816406 28.835938 -12.503906 28.546875 -12.109375 C 26.992188 -9.984375 25.367188 -7.992188 23.671875 -6.140625 C 21.984375 -4.285156 20.175781 -2.796875 18.25 -1.671875 C 16.320312 -0.554688 14.238281 0 12 0 C 10.3125 0 8.925781 -0.332031 7.84375 -1 C 6.757812 -1.664062 5.921875 -2.457031 5.328125 -3.375 C 4.734375 -4.289062 4.3125 -5.128906 4.0625 -5.890625 L 5.359375 -6.546875 C 5.710938 -5.785156 6.160156 -5.035156 6.703125 -4.296875 C 7.242188 -3.554688 7.953125 -2.941406 8.828125 -2.453125 C 9.710938 -1.972656 10.828125 -1.734375 12.171875 -1.734375 C 13.359375 -1.734375 14.582031 -2.128906 15.84375 -2.921875 C 17.101562 -3.710938 18.363281 -4.75 19.625 -6.03125 C 20.882812 -7.3125 22.117188 -8.722656 23.328125 -10.265625 C 24.535156 -11.816406 25.679688 -13.359375 26.765625 -14.890625 C 27.847656 -16.421875 28.820312 -17.832031 29.6875 -19.125 C 30.550781 -20.425781 31.269531 -21.457031 31.84375 -22.21875 C 32.957031 -23.65625 33.992188 -24.894531 34.953125 -25.9375 C 35.910156 -26.988281 36.890625 -27.898438 37.890625 -28.671875 C 38.898438 -29.453125 40.035156 -30.148438 41.296875 -30.765625 C 42.566406 -31.378906 44.066406 -31.972656 45.796875 -32.546875 Z M 43.84375 -30.28125 L 43.734375 -30.390625 C 42.046875 -29.585938 40.503906 -28.472656 39.109375 -27.046875 C 37.722656 -25.628906 36.363281 -23.921875 35.03125 -21.921875 C 33.695312 -19.921875 32.21875 -17.640625 30.59375 -15.078125 L 36.8125 -14.765625 C 37.5 -16.703125 38.128906 -18.5 38.703125 -20.15625 C 39.285156 -21.820312 39.960938 -23.460938 40.734375 -25.078125 C 41.515625 -26.703125 42.550781 -28.4375 43.84375 -30.28125 Z M 43.84375 -30.28125 "/></g></g></g><g fill="#000000" fill-opacity="1"><g transform="translate(299.351355, 85.005658)"><g><path d="M 34.390625 -13.5625 C 34.390625 -11.945312 34.085938 -10.335938 33.484375 -8.734375 C 32.890625 -7.128906 31.976562 -5.664062 30.75 -4.34375 C 29.53125 -3.03125 28.007812 -1.976562 26.1875 -1.1875 C 24.375 -0.394531 22.238281 0 19.78125 0 C 17.4375 0 15.265625 -0.429688 13.265625 -1.296875 C 11.265625 -2.160156 9.660156 -3.457031 8.453125 -5.1875 C 7.253906 -6.914062 6.65625 -9.039062 6.65625 -11.5625 C 6.65625 -13.15625 7.050781 -14.5625 7.84375 -15.78125 C 8.632812 -17.007812 9.648438 -18.070312 10.890625 -18.96875 C 12.140625 -19.875 13.421875 -20.585938 14.734375 -21.109375 C 16.046875 -21.628906 17.222656 -21.960938 18.265625 -22.109375 C 17.691406 -22.578125 17.023438 -23.179688 16.265625 -23.921875 C 15.515625 -24.660156 15.140625 -25.695312 15.140625 -27.03125 C 15.140625 -28.4375 15.585938 -29.578125 16.484375 -30.453125 C 17.390625 -31.335938 18.535156 -32 19.921875 -32.4375 C 21.304688 -32.875 22.703125 -33.09375 24.109375 -33.09375 C 26.054688 -33.09375 27.738281 -32.757812 29.15625 -32.09375 C 30.582031 -31.425781 31.679688 -30.625 32.453125 -29.6875 C 33.234375 -28.75 33.625 -27.828125 33.625 -26.921875 C 33.625 -26.054688 33.304688 -25.289062 32.671875 -24.625 C 32.046875 -23.957031 31.210938 -23.625 30.171875 -23.625 C 28.835938 -23.625 27.789062 -24.007812 27.03125 -24.78125 C 26.269531 -25.5625 25.75 -26.296875 25.46875 -26.984375 L 26.4375 -27.625 C 26.800781 -27.257812 27.171875 -26.941406 27.546875 -26.671875 C 27.921875 -26.410156 28.398438 -26.28125 28.984375 -26.28125 C 29.304688 -26.28125 29.65625 -26.410156 30.03125 -26.671875 C 30.40625 -26.941406 30.59375 -27.296875 30.59375 -27.734375 C 30.59375 -28.421875 30.304688 -29.035156 29.734375 -29.578125 C 29.160156 -30.117188 28.421875 -30.550781 27.515625 -30.875 C 26.617188 -31.195312 25.644531 -31.359375 24.59375 -31.359375 C 22.832031 -31.359375 21.410156 -30.914062 20.328125 -30.03125 C 19.242188 -29.144531 18.703125 -27.945312 18.703125 -26.4375 C 18.703125 -25.789062 18.878906 -25.175781 19.234375 -24.59375 C 19.597656 -24.019531 20.003906 -23.535156 20.453125 -23.140625 C 20.910156 -22.742188 21.300781 -22.457031 21.625 -22.28125 L 21.46875 -21.03125 C 19.625 -20.738281 17.835938 -20.148438 16.109375 -19.265625 C 14.378906 -18.390625 12.960938 -17.226562 11.859375 -15.78125 C 10.765625 -14.34375 10.21875 -12.597656 10.21875 -10.546875 C 10.21875 -9.023438 10.523438 -7.707031 11.140625 -6.59375 C 11.753906 -5.476562 12.554688 -4.554688 13.546875 -3.828125 C 14.535156 -3.109375 15.585938 -2.578125 16.703125 -2.234375 C 17.816406 -1.898438 18.878906 -1.734375 19.890625 -1.734375 C 22.347656 -1.734375 24.539062 -2.269531 26.46875 -3.34375 C 28.394531 -4.425781 29.914062 -5.882812 31.03125 -7.71875 C 32.144531 -9.5625 32.703125 -11.582031 32.703125 -13.78125 C 32.703125 -14.394531 32.648438 -14.9375 32.546875 -15.40625 L 34 -15.84375 C 34.113281 -15.519531 34.207031 -15.175781 34.28125 -14.8125 C 34.351562 -14.445312 34.390625 -14.03125 34.390625 -13.5625 Z M 34.390625 -13.5625 "/></g></g></g></svg>